# xmcd
#
# Track frame offsets:
#	150
#	12326
#	26823
#	41748
#	58487
#	70887
#	81185
#	95441
#	106824
#	122622
#	136641
#	147825
#
# Disc length: 2014 seconds
#
# Revision: 1
# Processed by: cddbd v1.5.1PL0 Copyright (c) Steve Scherf et al.
# Submitted via: audiograbber 1.83.01
#
DISCID=a307dc0c
DTITLE=Southern Horizon - Southern Horizon
DYEAR=2003
DGENRE=Bluegrass
TTITLE0=Keep Your Eyes On Jesus
TTITLE1=Born Again
TTITLE2=The Man In The Middle
TTITLE3=Never Changing Arm
TTITLE4=Jesus Paid It All
TTITLE5=Cross Your Heart
TTITLE6=Brand New
TTITLE7=I'll Talk It All Over With Him
TTITLE8=The Little Church
TTITLE9=God Will Wipe All Tears
TTITLE10=You Go To Your Church
TTITLE11=Acapella Medley
EXTD=
EXTT0=
EXTT1=
EXTT2=
EXTT3=
EXTT4=
EXTT5=
EXTT6=
EXTT7=
EXTT8=
EXTT9=
EXTT10=
EXTT11=
PLAYORDER=
